<svg width="658" height="60" viewBox="0 0 658 60" fill="none" xmlns="http://www.w3.org/2000/svg">
    <path variants={pathVariants} initial="hidden" animate="visible"
        d="M648.089 40.7743C648.089 39.259 647.539 38.0032 646.439 37.0068C645.34 35.9897 642.668 34.8376 638.423 33.5506C634.2 32.2429 630.55 30.5616 627.471 28.5067C624.238 26.3686 622.621 23.3276 622.621 19.3837C622.621 15.5849 624.282 12.5231 627.603 10.1984C630.924 7.87374 635.179 6.71131 640.369 6.71115C645.692 6.71115 649.958 8.02927 653.169 10.6655C656.38 13.281 657.985 16.623 657.985 20.6916H648.089C648.089 18.7819 647.44 17.2147 646.142 15.99C644.845 14.7653 642.865 14.1529 640.204 14.1529C637.609 14.1529 635.674 14.6719 634.398 15.7098C633.145 16.7269 632.518 17.962 632.518 19.415C632.518 20.9096 633.332 22.1551 634.959 23.1514C636.587 24.1478 638.951 25.0923 642.052 25.9849C647.308 27.5002 651.278 29.3996 653.961 31.683C656.666 33.9664 658.019 36.9763 658.019 40.7127C658.019 44.6774 656.435 47.7703 653.268 49.9913C650.101 52.1916 645.879 53.2918 640.6 53.2918C637.411 53.2918 634.332 52.7624 631.363 51.7038C628.394 50.6451 625.953 49.0157 624.04 46.8154C622.126 44.6151 621.17 41.8024 621.17 38.3773H631.1C631.1 41.138 631.969 43.0789 633.706 44.1999C635.465 45.3208 637.764 45.8812 640.601 45.8812C643.152 45.8812 645.032 45.3934 646.242 44.4178C647.474 43.4422 648.089 42.2279 648.089 40.7748L648.089 40.7743ZM606.555 40.7743C606.555 39.259 606.005 38.0032 604.906 37.0068C603.806 35.9897 601.134 34.8376 596.889 33.5506C592.667 32.2429 589.016 30.5616 585.937 28.5067C582.704 26.3686 581.088 23.3276 581.088 19.3837C581.088 15.5849 582.748 12.5231 586.069 10.1984C589.39 7.87358 593.646 6.71115 598.836 6.71115C604.158 6.71115 608.425 8.02927 611.636 10.6655C614.847 13.281 616.452 16.623 616.452 20.6916H606.555C606.555 18.7819 605.906 17.2147 604.609 15.99C603.311 14.7653 601.332 14.1529 598.671 14.1529C596.076 14.1529 594.14 14.6719 592.865 15.7098C591.611 16.7269 590.985 17.962 590.985 19.415C590.985 20.9096 591.798 22.1551 593.426 23.1514C595.053 24.1478 597.417 25.0923 600.518 25.9849C605.775 27.5002 609.744 29.3996 612.427 31.683C615.133 33.9664 616.485 36.9763 616.485 40.7127C616.485 44.6774 614.902 47.7703 611.735 49.9913C608.568 52.1916 604.345 53.2918 599.067 53.2918C595.878 53.2918 592.799 52.7624 589.83 51.7038C586.861 50.6451 584.42 49.0157 582.506 46.8154C580.593 44.6151 579.636 41.8024 579.636 38.3773H589.566C589.566 41.138 590.435 43.0789 592.172 44.1999C593.932 45.3208 596.23 45.8812 599.067 45.8812C601.618 45.8812 603.499 45.3934 604.708 44.4178C605.94 43.4422 606.556 42.2279 606.556 40.7748L606.555 40.7743ZM543.613 52.6684V7.33332H575.745V14.8995H553.543V25.7038H572.512V33.021H553.543V45.1334H575.844V52.6684H543.613ZM534.97 7.33332V52.6684H525.073L505.807 22.8083V52.6684H495.877V7.33332H505.807L525.073 37.2246V7.33332H534.97ZM451.145 14.8995V7.33332H490.237V14.8995H475.557V52.6679H465.66V14.8995H451.145ZM445.834 7.33332V52.6684H435.937V7.33332H445.834ZM398.263 52.6684V7.33332H429.57V14.8995H408.193V26.6069H427.194V34.1419H408.193V52.6684H398.263ZM375.764 45.1334V52.6684H344.853V7.33332H354.783V45.1334H375.764ZM339.179 45.1334V52.6684H308.268V7.33332H318.198V45.1334H339.179ZM270.263 52.6684V7.33332H302.395V14.8995H280.193V25.7038H299.162V33.021H280.193V45.1334H302.494V52.6684H270.263ZM253.933 52.6684L244.96 36.0415H237.075V52.6684H227.146V7.33332H245.026C250.546 7.33332 254.879 8.50614 258.024 10.8518C261.191 13.1766 262.774 16.5705 262.774 21.0334C262.774 24.3131 262.004 26.9597 260.465 28.9734C258.925 30.9868 256.836 32.5541 254.197 33.675L264.588 52.2326V52.6685L253.933 52.6684ZM237.075 14.8999V28.5064H245.026C247.621 28.5064 249.567 27.8941 250.865 26.6694C252.184 25.4239 252.844 23.7841 252.844 21.7499C252.844 19.6534 252.206 17.9928 250.931 16.7682C249.655 15.5227 247.687 14.9 245.026 14.9L237.075 14.8999ZM210.816 52.6684L201.843 36.0415H193.958V52.6684H184.029V7.33332H201.909C207.429 7.33332 211.762 8.50614 214.906 10.8518C218.073 13.1766 219.657 16.5705 219.657 21.0334C219.657 24.3131 218.887 26.9597 217.348 28.9734C215.808 30.9868 213.719 32.5541 211.08 33.675L221.471 52.2326V52.6685L210.816 52.6684ZM193.958 14.8999V28.5064H201.909C204.504 28.5064 206.45 27.8941 207.748 26.6694C209.067 25.4239 209.727 23.7841 209.727 21.7499C209.727 19.6534 209.089 17.9928 207.814 16.7682C206.538 15.5227 204.57 14.9 201.909 14.9L193.958 14.8999ZM134.513 52.6684L152.393 7.33332H161.564L179.543 52.6684H168.986L165.687 43.3276H148.302L145.003 52.6684H134.513ZM150.974 35.761H163.015L157.011 18.7292L150.974 35.761ZM107.824 52.6684V7.33332H139.131V14.8995H117.754V26.6069H136.756V34.1419H117.754V52.6684H107.824ZM0.00576782 -0.00193243L9.38119 13.187H28.5188V17.5251H12.465L21.3207 29.983H27.4404V38.5918L42.6579 59.9992V-0.00105725L0.00576782 -0.00193243ZM44.2162 -0.00193243V59.9983L59.4337 38.5909V29.9821H65.5533L74.4091 17.5242H58.3553V13.1862H77.4929L86.8683 -0.00280762L44.2162 -0.00193243Z"
        fill="white" />
</svg>